<mxfile host="app.diagrams.net" modified="2023-09-30T14:13:59.889Z" agent="Mozilla/5.0 (Macintosh; Intel Mac OS X 10_15_7) AppleWebKit/605.1.15 (KHTML, like Gecko) Version/17.0 Safari/605.1.15" version="22.0.0" etag="yiYcuBYb5c7WhhFQeY6g" type="github">
  <diagram name="Page-1" id="Tn5Dd9hMgI2diV37IEIk">
    <mxGraphModel>
      <root>
        <mxCell id="0" />
        <mxCell id="1" parent="0" />
      </root>
    </mxGraphModel>
  </diagram>
</mxfile>
